# xmcd
#
# Track frame offsets: 
#        150
#        25298
#        43011
#        63411
#        88464
#        107541
#
# Disc length: 1621 seconds
#
# Revision: 0
# Processed by: cddbd v1.5.2PL0 Copyright (c) Steve Scherf et al.
# Submitted via: ExactAudioCopy v0.99pb3
#
DISCID=4c065306
DTITLE=Qwill - The Past Must Present
DYEAR=2010
DGENRE=Soul
TTITLE0=Matter Of Time
TTITLE1=Hanging On A Thread
TTITLE2=Nothing Is Impossible
TTITLE3=Learning
TTITLE4=Take The Blame
TTITLE5=Scars (demo cut)
EXTD=
EXTT0=
EXTT1=
EXTT2=
EXTT3=
EXTT4=
EXTT5=
PLAYORDER=
